<svg xmlns="http://www.w3.org/2000/svg" width="1100" height="620" viewBox="0 0 1100 620">
<rect width="100%" height="100%" fill="#fcfcf8"/>
<text x="550.0" y="36" text-anchor="middle" font-size="24" fill="#1f1f1f">Absolute Error in Carry Probabilities</text>
<text x="550.0" y="600" text-anchor="middle" font-size="18" fill="#1f1f1f">Bit / Stage</text>
<text x="28" y="310.0" text-anchor="middle" font-size="18" fill="#1f1f1f" transform="rotate(-90 28,310)">|Empirical - Theoretical|</text>
<line x1="90" y1="80" x2="90" y2="500" stroke="#222" stroke-width="2"/>
<line x1="90" y1="500" x2="1070" y2="500" stroke="#222" stroke-width="2"/>
<line x1="90" y1="500.00" x2="1070" y2="500.00" stroke="#dddddd" stroke-width="1"/>
<text x="80" y="505.00" text-anchor="end" font-size="14" fill="#444">0.0000</text>
<line x1="90" y1="416.00" x2="1070" y2="416.00" stroke="#dddddd" stroke-width="1"/>
<text x="80" y="421.00" text-anchor="end" font-size="14" fill="#444">0.0020</text>
<line x1="90" y1="332.00" x2="1070" y2="332.00" stroke="#dddddd" stroke-width="1"/>
<text x="80" y="337.00" text-anchor="end" font-size="14" fill="#444">0.0040</text>
<line x1="90" y1="248.00" x2="1070" y2="248.00" stroke="#dddddd" stroke-width="1"/>
<text x="80" y="253.00" text-anchor="end" font-size="14" fill="#444">0.0061</text>
<line x1="90" y1="164.00" x2="1070" y2="164.00" stroke="#dddddd" stroke-width="1"/>
<text x="80" y="169.00" text-anchor="end" font-size="14" fill="#444">0.0081</text>
<line x1="90" y1="80.00" x2="1070" y2="80.00" stroke="#dddddd" stroke-width="1"/>
<text x="80" y="85.00" text-anchor="end" font-size="14" fill="#444">0.0101</text>
<rect x="101.53" y="383.56" width="34.59" height="116.44" fill="#b94e48"/>
<text x="118.82" y="524" text-anchor="middle" font-size="12" fill="#444">Cin</text>
<text x="118.82" y="375.56" text-anchor="middle" font-size="11" fill="#b94e48">0.0028</text>
<rect x="159.18" y="366.93" width="34.59" height="133.07" fill="#b94e48"/>
<text x="176.47" y="524" text-anchor="middle" font-size="12" fill="#444">C1</text>
<text x="176.47" y="358.93" text-anchor="middle" font-size="11" fill="#b94e48">0.0032</text>
<rect x="216.82" y="217.23" width="34.59" height="282.77" fill="#b94e48"/>
<text x="234.12" y="524" text-anchor="middle" font-size="12" fill="#444">C2</text>
<text x="234.12" y="209.23" text-anchor="middle" font-size="11" fill="#b94e48">0.0068</text>
<rect x="274.47" y="337.82" width="34.59" height="162.18" fill="#b94e48"/>
<text x="291.76" y="524" text-anchor="middle" font-size="12" fill="#444">C3</text>
<text x="291.76" y="329.82" text-anchor="middle" font-size="11" fill="#b94e48">0.0039</text>
<rect x="332.12" y="483.37" width="34.59" height="16.63" fill="#b94e48"/>
<text x="349.41" y="524" text-anchor="middle" font-size="12" fill="#444">C4</text>
<text x="349.41" y="475.37" text-anchor="middle" font-size="11" fill="#b94e48">0.0004</text>
<rect x="389.76" y="408.51" width="34.59" height="91.49" fill="#b94e48"/>
<text x="407.06" y="524" text-anchor="middle" font-size="12" fill="#444">C5</text>
<text x="407.06" y="400.51" text-anchor="middle" font-size="11" fill="#b94e48">0.0022</text>
<rect x="447.41" y="466.73" width="34.59" height="33.27" fill="#b94e48"/>
<text x="464.71" y="524" text-anchor="middle" font-size="12" fill="#444">C6</text>
<text x="464.71" y="458.73" text-anchor="middle" font-size="11" fill="#b94e48">0.0008</text>
<rect x="505.06" y="258.81" width="34.59" height="241.19" fill="#b94e48"/>
<text x="522.35" y="524" text-anchor="middle" font-size="12" fill="#444">C7</text>
<text x="522.35" y="250.81" text-anchor="middle" font-size="11" fill="#b94e48">0.0058</text>
<rect x="562.71" y="113.27" width="34.59" height="386.73" fill="#b94e48"/>
<text x="580.00" y="524" text-anchor="middle" font-size="12" fill="#444">C8</text>
<text x="580.00" y="105.27" text-anchor="middle" font-size="11" fill="#b94e48">0.0093</text>
<rect x="620.35" y="188.12" width="34.59" height="311.88" fill="#b94e48"/>
<text x="637.65" y="524" text-anchor="middle" font-size="12" fill="#444">C9</text>
<text x="637.65" y="180.12" text-anchor="middle" font-size="11" fill="#b94e48">0.0075</text>
<rect x="678.00" y="109.11" width="34.59" height="390.89" fill="#b94e48"/>
<text x="695.29" y="524" text-anchor="middle" font-size="12" fill="#444">C10</text>
<text x="695.29" y="101.11" text-anchor="middle" font-size="11" fill="#b94e48">0.0094</text>
<rect x="735.65" y="80.00" width="34.59" height="420.00" fill="#b94e48"/>
<text x="752.94" y="524" text-anchor="middle" font-size="12" fill="#444">C11</text>
<text x="752.94" y="72.00" text-anchor="middle" font-size="11" fill="#b94e48">0.0101</text>
<rect x="793.29" y="308.71" width="34.59" height="191.29" fill="#b94e48"/>
<text x="810.59" y="524" text-anchor="middle" font-size="12" fill="#444">C12</text>
<text x="810.59" y="300.71" text-anchor="middle" font-size="11" fill="#b94e48">0.0046</text>
<rect x="850.94" y="475.05" width="34.59" height="24.95" fill="#b94e48"/>
<text x="868.24" y="524" text-anchor="middle" font-size="12" fill="#444">C13</text>
<text x="868.24" y="467.05" text-anchor="middle" font-size="11" fill="#b94e48">0.0006</text>
<rect x="908.59" y="341.98" width="34.59" height="158.02" fill="#b94e48"/>
<text x="925.88" y="524" text-anchor="middle" font-size="12" fill="#444">C14</text>
<text x="925.88" y="333.98" text-anchor="middle" font-size="11" fill="#b94e48">0.0038</text>
<rect x="966.24" y="371.09" width="34.59" height="128.91" fill="#b94e48"/>
<text x="983.53" y="524" text-anchor="middle" font-size="12" fill="#444">C15</text>
<text x="983.53" y="363.09" text-anchor="middle" font-size="11" fill="#b94e48">0.0031</text>
<rect x="1023.88" y="479.21" width="34.59" height="20.79" fill="#b94e48"/>
<text x="1041.18" y="524" text-anchor="middle" font-size="12" fill="#444">C16</text>
<text x="1041.18" y="471.21" text-anchor="middle" font-size="11" fill="#b94e48">0.0005</text>
</svg>
