<svg xmlns="http://www.w3.org/2000/svg" width="900" height="620" viewBox="0 0 900 620">
<rect width="100%" height="100%" fill="#fcfcf8"/>
<text x="450.0" y="36" text-anchor="middle" font-size="24" fill="#1f1f1f">Conditional Carry Transition Probabilities</text>
<text x="450.0" y="600" text-anchor="middle" font-size="18" fill="#1f1f1f">Condition</text>
<text x="28" y="310.0" text-anchor="middle" font-size="18" fill="#1f1f1f" transform="rotate(-90 28,310)">P(C_out = 1 | condition)</text>
<line x1="90" y1="80" x2="90" y2="500" stroke="#222" stroke-width="2"/>
<line x1="90" y1="500" x2="870" y2="500" stroke="#222" stroke-width="2"/>
<line x1="90" y1="500.00" x2="870" y2="500.00" stroke="#dddddd" stroke-width="1"/>
<text x="80" y="505.00" text-anchor="end" font-size="14" fill="#444">0.0</text>
<line x1="90" y1="416.00" x2="870" y2="416.00" stroke="#dddddd" stroke-width="1"/>
<text x="80" y="421.00" text-anchor="end" font-size="14" fill="#444">0.2</text>
<line x1="90" y1="332.00" x2="870" y2="332.00" stroke="#dddddd" stroke-width="1"/>
<text x="80" y="337.00" text-anchor="end" font-size="14" fill="#444">0.4</text>
<line x1="90" y1="248.00" x2="870" y2="248.00" stroke="#dddddd" stroke-width="1"/>
<text x="80" y="253.00" text-anchor="end" font-size="14" fill="#444">0.6</text>
<line x1="90" y1="164.00" x2="870" y2="164.00" stroke="#dddddd" stroke-width="1"/>
<text x="80" y="169.00" text-anchor="end" font-size="14" fill="#444">0.8</text>
<line x1="90" y1="80.00" x2="870" y2="80.00" stroke="#dddddd" stroke-width="1"/>
<text x="80" y="85.00" text-anchor="end" font-size="14" fill="#444">1.0</text>
<rect x="169.80" y="395.00" width="109.20" height="105.00" fill="#1f5aa6"/>
<rect x="291.00" y="395.38" width="109.20" height="104.62" fill="#cc5500"/>
<text x="285.00" y="524" text-anchor="middle" font-size="14" fill="#444">C_in = 0</text>
<text x="224.40" y="387.00" text-anchor="middle" font-size="12" fill="#1f5aa6">0.250</text>
<text x="345.60" y="387.38" text-anchor="middle" font-size="12" fill="#cc5500">0.249</text>
<rect x="559.80" y="185.00" width="109.20" height="315.00" fill="#1f5aa6"/>
<rect x="681.00" y="185.62" width="109.20" height="314.38" fill="#cc5500"/>
<text x="675.00" y="524" text-anchor="middle" font-size="14" fill="#444">C_in = 1</text>
<text x="614.40" y="177.00" text-anchor="middle" font-size="12" fill="#1f5aa6">0.750</text>
<text x="735.60" y="177.62" text-anchor="middle" font-size="12" fill="#cc5500">0.749</text>
<rect x="630" y="55" width="210" height="54" fill="#ffffff" stroke="#cccccc"/>
<rect x="646" y="65" width="18" height="18" fill="#1f5aa6"/>
<text x="674" y="79" font-size="15" fill="#222">Theoretical model</text>
<rect x="646" y="86" width="18" height="18" fill="#cc5500"/>
<text x="674" y="100" font-size="15" fill="#222">Empirical VCD data</text>
</svg>
