<svg xmlns="http://www.w3.org/2000/svg" width="1100" height="620" viewBox="0 0 1100 620">
<rect width="100%" height="100%" fill="#fcfcf8"/>
<text x="550.0" y="36" text-anchor="middle" font-size="24" fill="#1f1f1f">Absolute Error in Sum Bit Probabilities</text>
<text x="550.0" y="600" text-anchor="middle" font-size="18" fill="#1f1f1f">Bit / Stage</text>
<text x="28" y="310.0" text-anchor="middle" font-size="18" fill="#1f1f1f" transform="rotate(-90 28,310)">|Empirical - Theoretical|</text>
<line x1="90" y1="80" x2="90" y2="500" stroke="#222" stroke-width="2"/>
<line x1="90" y1="500" x2="1070" y2="500" stroke="#222" stroke-width="2"/>
<line x1="90" y1="500.00" x2="1070" y2="500.00" stroke="#dddddd" stroke-width="1"/>
<text x="80" y="505.00" text-anchor="end" font-size="14" fill="#444">0.0000</text>
<line x1="90" y1="416.00" x2="1070" y2="416.00" stroke="#dddddd" stroke-width="1"/>
<text x="80" y="421.00" text-anchor="end" font-size="14" fill="#444">0.0019</text>
<line x1="90" y1="332.00" x2="1070" y2="332.00" stroke="#dddddd" stroke-width="1"/>
<text x="80" y="337.00" text-anchor="end" font-size="14" fill="#444">0.0037</text>
<line x1="90" y1="248.00" x2="1070" y2="248.00" stroke="#dddddd" stroke-width="1"/>
<text x="80" y="253.00" text-anchor="end" font-size="14" fill="#444">0.0056</text>
<line x1="90" y1="164.00" x2="1070" y2="164.00" stroke="#dddddd" stroke-width="1"/>
<text x="80" y="169.00" text-anchor="end" font-size="14" fill="#444">0.0074</text>
<line x1="90" y1="80.00" x2="1070" y2="80.00" stroke="#dddddd" stroke-width="1"/>
<text x="80" y="85.00" text-anchor="end" font-size="14" fill="#444">0.0093</text>
<rect x="102.25" y="278.71" width="36.75" height="221.29" fill="#b94e48"/>
<text x="120.62" y="524" text-anchor="middle" font-size="12" fill="#444">0</text>
<text x="120.62" y="270.71" text-anchor="middle" font-size="11" fill="#b94e48">0.0049</text>
<rect x="163.50" y="364.52" width="36.75" height="135.48" fill="#b94e48"/>
<text x="181.88" y="524" text-anchor="middle" font-size="12" fill="#444">1</text>
<text x="181.88" y="356.52" text-anchor="middle" font-size="11" fill="#b94e48">0.0030</text>
<rect x="224.75" y="314.84" width="36.75" height="185.16" fill="#b94e48"/>
<text x="243.12" y="524" text-anchor="middle" font-size="12" fill="#444">2</text>
<text x="243.12" y="306.84" text-anchor="middle" font-size="11" fill="#b94e48">0.0041</text>
<rect x="286.00" y="423.23" width="36.75" height="76.77" fill="#b94e48"/>
<text x="304.38" y="524" text-anchor="middle" font-size="12" fill="#444">3</text>
<text x="304.38" y="415.23" text-anchor="middle" font-size="11" fill="#b94e48">0.0017</text>
<rect x="347.25" y="490.97" width="36.75" height="9.03" fill="#b94e48"/>
<text x="365.62" y="524" text-anchor="middle" font-size="12" fill="#444">4</text>
<text x="365.62" y="482.97" text-anchor="middle" font-size="11" fill="#b94e48">0.0002</text>
<rect x="408.50" y="98.06" width="36.75" height="401.94" fill="#b94e48"/>
<text x="426.88" y="524" text-anchor="middle" font-size="12" fill="#444">5</text>
<text x="426.88" y="90.06" text-anchor="middle" font-size="11" fill="#b94e48">0.0089</text>
<rect x="469.75" y="152.26" width="36.75" height="347.74" fill="#b94e48"/>
<text x="488.12" y="524" text-anchor="middle" font-size="12" fill="#444">6</text>
<text x="488.12" y="144.26" text-anchor="middle" font-size="11" fill="#b94e48">0.0077</text>
<rect x="531.00" y="490.97" width="36.75" height="9.03" fill="#b94e48"/>
<text x="549.38" y="524" text-anchor="middle" font-size="12" fill="#444">7</text>
<text x="549.38" y="482.97" text-anchor="middle" font-size="11" fill="#b94e48">0.0002</text>
<rect x="592.25" y="84.52" width="36.75" height="415.48" fill="#b94e48"/>
<text x="610.62" y="524" text-anchor="middle" font-size="12" fill="#444">8</text>
<text x="610.62" y="76.52" text-anchor="middle" font-size="11" fill="#b94e48">0.0092</text>
<rect x="653.50" y="224.52" width="36.75" height="275.48" fill="#b94e48"/>
<text x="671.88" y="524" text-anchor="middle" font-size="12" fill="#444">9</text>
<text x="671.88" y="216.52" text-anchor="middle" font-size="11" fill="#b94e48">0.0061</text>
<rect x="714.75" y="405.16" width="36.75" height="94.84" fill="#b94e48"/>
<text x="733.12" y="524" text-anchor="middle" font-size="12" fill="#444">10</text>
<text x="733.12" y="397.16" text-anchor="middle" font-size="11" fill="#b94e48">0.0021</text>
<rect x="776.00" y="495.48" width="36.75" height="4.52" fill="#b94e48"/>
<text x="794.38" y="524" text-anchor="middle" font-size="12" fill="#444">11</text>
<text x="794.38" y="487.48" text-anchor="middle" font-size="11" fill="#b94e48">0.0001</text>
<rect x="837.25" y="332.90" width="36.75" height="167.10" fill="#b94e48"/>
<text x="855.62" y="524" text-anchor="middle" font-size="12" fill="#444">12</text>
<text x="855.62" y="324.90" text-anchor="middle" font-size="11" fill="#b94e48">0.0037</text>
<rect x="898.50" y="305.81" width="36.75" height="194.19" fill="#b94e48"/>
<text x="916.88" y="524" text-anchor="middle" font-size="12" fill="#444">13</text>
<text x="916.88" y="297.81" text-anchor="middle" font-size="11" fill="#b94e48">0.0043</text>
<rect x="959.75" y="396.13" width="36.75" height="103.87" fill="#b94e48"/>
<text x="978.12" y="524" text-anchor="middle" font-size="12" fill="#444">14</text>
<text x="978.12" y="388.13" text-anchor="middle" font-size="11" fill="#b94e48">0.0023</text>
<rect x="1021.00" y="80.00" width="36.75" height="420.00" fill="#b94e48"/>
<text x="1039.38" y="524" text-anchor="middle" font-size="12" fill="#444">15</text>
<text x="1039.38" y="72.00" text-anchor="middle" font-size="11" fill="#b94e48">0.0093</text>
</svg>
