<svg xmlns="http://www.w3.org/2000/svg" width="1100" height="620" viewBox="0 0 1100 620">
<rect width="100%" height="100%" fill="#fcfcf8"/>
<text x="550.0" y="36" text-anchor="middle" font-size="24" fill="#1f1f1f">Histogram of 17-bit Total Output Values</text>
<text x="550.0" y="600" text-anchor="middle" font-size="18" fill="#1f1f1f">Total output value</text>
<text x="28" y="310.0" text-anchor="middle" font-size="18" fill="#1f1f1f" transform="rotate(-90 28,310)">Count</text>
<line x1="90" y1="80" x2="90" y2="500" stroke="#222" stroke-width="2"/>
<line x1="90" y1="500" x2="1070" y2="500" stroke="#222" stroke-width="2"/>
<line x1="90" y1="500.00" x2="1070" y2="500.00" stroke="#dddddd" stroke-width="1"/>
<text x="80" y="505.00" text-anchor="end" font-size="14" fill="#444">0</text>
<line x1="90" y1="416.00" x2="1070" y2="416.00" stroke="#dddddd" stroke-width="1"/>
<text x="80" y="421.00" text-anchor="end" font-size="14" fill="#444">95</text>
<line x1="90" y1="332.00" x2="1070" y2="332.00" stroke="#dddddd" stroke-width="1"/>
<text x="80" y="337.00" text-anchor="end" font-size="14" fill="#444">190</text>
<line x1="90" y1="248.00" x2="1070" y2="248.00" stroke="#dddddd" stroke-width="1"/>
<text x="80" y="253.00" text-anchor="end" font-size="14" fill="#444">285</text>
<line x1="90" y1="164.00" x2="1070" y2="164.00" stroke="#dddddd" stroke-width="1"/>
<text x="80" y="169.00" text-anchor="end" font-size="14" fill="#444">380</text>
<line x1="90" y1="80.00" x2="1070" y2="80.00" stroke="#dddddd" stroke-width="1"/>
<text x="80" y="85.00" text-anchor="end" font-size="14" fill="#444">475</text>
<rect x="91.00" y="488.51" width="22.50" height="11.49" fill="#7a4eab"/>
<rect x="115.50" y="468.17" width="22.50" height="31.83" fill="#7a4eab"/>
<rect x="140.00" y="446.06" width="22.50" height="53.94" fill="#7a4eab"/>
<rect x="164.50" y="431.92" width="22.50" height="68.08" fill="#7a4eab"/>
<rect x="189.00" y="406.27" width="22.50" height="93.73" fill="#7a4eab"/>
<rect x="213.50" y="387.71" width="22.50" height="112.29" fill="#7a4eab"/>
<rect x="238.00" y="364.72" width="22.50" height="135.28" fill="#7a4eab"/>
<rect x="262.50" y="335.54" width="22.50" height="164.46" fill="#7a4eab"/>
<rect x="287.00" y="309.01" width="22.50" height="190.99" fill="#7a4eab"/>
<rect x="311.50" y="307.24" width="22.50" height="192.76" fill="#7a4eab"/>
<rect x="336.00" y="254.19" width="22.50" height="245.81" fill="#7a4eab"/>
<rect x="360.50" y="263.03" width="22.50" height="236.97" fill="#7a4eab"/>
<rect x="385.00" y="211.75" width="22.50" height="288.25" fill="#7a4eab"/>
<rect x="409.50" y="201.14" width="22.50" height="298.86" fill="#7a4eab"/>
<rect x="434.00" y="186.99" width="22.50" height="313.01" fill="#7a4eab"/>
<rect x="458.50" y="164.88" width="22.50" height="335.12" fill="#7a4eab"/>
<rect x="483.00" y="137.47" width="22.50" height="362.53" fill="#7a4eab"/>
<rect x="507.50" y="95.92" width="22.50" height="404.08" fill="#7a4eab"/>
<rect x="532.00" y="80.00" width="22.50" height="420.00" fill="#7a4eab"/>
<rect x="556.50" y="81.77" width="22.50" height="418.23" fill="#7a4eab"/>
<rect x="581.00" y="93.26" width="22.50" height="406.74" fill="#7a4eab"/>
<rect x="605.50" y="95.92" width="22.50" height="404.08" fill="#7a4eab"/>
<rect x="630.00" y="107.41" width="22.50" height="392.59" fill="#7a4eab"/>
<rect x="654.50" y="135.71" width="22.50" height="364.29" fill="#7a4eab"/>
<rect x="679.00" y="177.26" width="22.50" height="322.74" fill="#7a4eab"/>
<rect x="703.50" y="164.00" width="22.50" height="336.00" fill="#7a4eab"/>
<rect x="728.00" y="191.41" width="22.50" height="308.59" fill="#7a4eab"/>
<rect x="752.50" y="233.85" width="22.50" height="266.15" fill="#7a4eab"/>
<rect x="777.00" y="270.11" width="22.50" height="229.89" fill="#7a4eab"/>
<rect x="801.50" y="254.19" width="22.50" height="245.81" fill="#7a4eab"/>
<rect x="826.00" y="272.76" width="22.50" height="227.24" fill="#7a4eab"/>
<rect x="850.50" y="302.82" width="22.50" height="197.18" fill="#7a4eab"/>
<rect x="875.00" y="310.78" width="22.50" height="189.22" fill="#7a4eab"/>
<rect x="899.50" y="354.11" width="22.50" height="145.89" fill="#7a4eab"/>
<rect x="924.00" y="380.63" width="22.50" height="119.37" fill="#7a4eab"/>
<rect x="948.50" y="403.62" width="22.50" height="96.38" fill="#7a4eab"/>
<rect x="973.00" y="419.54" width="22.50" height="80.46" fill="#7a4eab"/>
<rect x="997.50" y="424.84" width="22.50" height="75.16" fill="#7a4eab"/>
<rect x="1022.00" y="460.21" width="22.50" height="39.79" fill="#7a4eab"/>
<rect x="1046.50" y="483.20" width="22.50" height="16.80" fill="#7a4eab"/>
<line x1="90.00" y1="500" x2="90.00" y2="506" stroke="#222" stroke-width="1"/>
<text x="90.00" y="524" text-anchor="middle" font-size="12" fill="#444">156</text>
<line x1="212.50" y1="500" x2="212.50" y2="506" stroke="#222" stroke-width="1"/>
<text x="212.50" y="524" text-anchor="middle" font-size="12" fill="#444">16408</text>
<line x1="359.50" y1="500" x2="359.50" y2="506" stroke="#222" stroke-width="1"/>
<text x="359.50" y="524" text-anchor="middle" font-size="12" fill="#444">35910</text>
<line x1="506.50" y1="500" x2="506.50" y2="506" stroke="#222" stroke-width="1"/>
<text x="506.50" y="524" text-anchor="middle" font-size="12" fill="#444">55413</text>
<line x1="629.00" y1="500" x2="629.00" y2="506" stroke="#222" stroke-width="1"/>
<text x="629.00" y="524" text-anchor="middle" font-size="12" fill="#444">71665</text>
<line x1="776.00" y1="500" x2="776.00" y2="506" stroke="#222" stroke-width="1"/>
<text x="776.00" y="524" text-anchor="middle" font-size="12" fill="#444">91167</text>
<line x1="923.00" y1="500" x2="923.00" y2="506" stroke="#222" stroke-width="1"/>
<text x="923.00" y="524" text-anchor="middle" font-size="12" fill="#444">110670</text>
<line x1="1070.00" y1="500" x2="1070.00" y2="506" stroke="#222" stroke-width="1"/>
<text x="1070.00" y="524" text-anchor="middle" font-size="12" fill="#444">130172</text>
</svg>
